<svg width="60" height="60" viewBox="0 0 60 60" fill="none" xmlns="http://www.w3.org/2000/svg">
<g id="Group 72">
<rect id="Rectangle 28" width="60" height="60" rx="20" fill="#FF868E"/>
<path id="Vector 348 (Stroke)" fill-rule="evenodd" clip-rule="evenodd" d="M23.0711 19C19.7181 19 17 21.7181 17 25.0711C17 26.6812 17.6396 28.2254 18.7782 29.364L30 40.5858L41.2218 29.364C42.3604 28.2254 43 26.6812 43 25.0711C43 21.7181 40.2819 19 36.9289 19C35.3188 19 33.7746 19.6396 32.636 20.7782L30.7071 22.7071C30.3166 23.0976 29.6834 23.0976 29.2929 22.7071L27.364 20.7782C26.2254 19.6396 24.6812 19 23.0711 19ZM15 25.0711C15 20.6135 18.6135 17 23.0711 17C25.2116 17 27.2646 17.8503 28.7782 19.364L30 20.5858L31.2218 19.364C32.7354 17.8503 34.7884 17 36.9289 17C41.3865 17 45 20.6135 45 25.0711C45 27.2116 44.1497 29.2646 42.636 30.7782L30.7071 42.7071C30.3166 43.0976 29.6834 43.0976 29.2929 42.7071L17.364 30.7782C15.8503 29.2646 15 27.2116 15 25.0711Z" fill="white"/>
</g>
</svg>
